<?xml version="1.0" encoding="UTF-8"?>
<svg width="48" height="48" viewBox="0 0 48 48" fill="none" xmlns="http://www.w3.org/2000/svg">
  <circle cx="24" cy="24" r="23" stroke="#0066CC" stroke-width="2"/>
  <path d="M33 17H31V15C31 14.45 30.55 14 30 14H18C17.45 14 17 14.45 17 15V17H15C14.45 17 14 17.45 14 18V32C14 32.55 14.45 33 15 33H33C33.55 33 34 32.55 34 32V18C34 17.45 33.55 17 33 17ZM19 16H29V17H19V16ZM32 31H16V19H32V31Z" fill="#0066CC"/>
  <path d="M24 21C22.34 21 21 22.34 21 24C21 25.66 22.34 27 24 27C25.66 27 27 25.66 27 24C27 22.34 25.66 21 24 21Z" fill="#0066CC"/>
</svg>
